# xmcd CD database file
#
# Track frame offsets:
#	150
#	21290
#	43155
#	65817
#	81225
#	96762
#	118322
#	137772
#
# Disc length: 2093 seconds
#
# Revision: 0
# Processed by: cddbd v1.5.1PL0 Copyright (c) Steve Scherf et al.
# Submitted via: CDex 1.51
#
DISCID=74082b08
DTITLE=Deborah Gray - Still got a thing
DYEAR=1997
DGENRE=Jazz
TTITLE0=Still got a thing (dub mix)
TTITLE1=Manhattan
TTITLE2=Grey to blue
TTITLE3=Feelin' fine
TTITLE4=Perfect world
TTITLE5=Still got a thing (radio mix)
TTITLE6=Manhattan (dub mix)
TTITLE7=One sweet night
EXTD=YEAR: 1997
EXTT0=
EXTT1=
EXTT2=
EXTT3=
EXTT4=
EXTT5=
EXTT6=
EXTT7=
PLAYORDER=
